<svg width="178" height="49" viewBox="0 0 178 49" fill="none" xmlns="http://www.w3.org/2000/svg">
<g clip-path="url(#clip0_105_290)">
<path d="M46.963 15.3031H30.1887C26.5145 15.3031 23.2078 13.077 21.8315 9.67613H38.7735C42.347 9.67613 45.5624 11.8409 46.9002 15.148L46.963 15.3031Z" fill="#F5A4B0"/>
<path d="M50.5183 24.0849H33.7446C30.0697 24.0849 26.7624 21.8588 25.3848 18.4579H42.1605C45.8353 18.4585 49.142 20.6847 50.5183 24.0849Z" fill="#F5A4B0"/>
<path d="M28.2645 35.175C25.5477 35.175 23.3438 37.3748 23.3438 40.0865C23.3438 42.7995 25.5477 45 28.2645 45C30.9826 45 33.1873 42.8002 33.1873 40.0865C33.1873 37.3748 30.9833 35.175 28.2645 35.175ZM28.2645 41.7812C27.3274 41.7812 26.5686 41.0225 26.5686 40.0872C26.5686 39.1518 27.3274 38.3945 28.2645 38.3945C29.2016 38.3945 29.9617 39.1518 29.9617 40.0872C29.9624 41.0218 29.2016 41.7812 28.2645 41.7812Z" fill="#F5A4B0"/>
<path d="M46.9638 35.175C44.2457 35.175 42.041 37.3748 42.041 40.0865C42.041 42.7995 44.245 45 46.9638 45C49.6819 45 51.8846 42.8002 51.8846 40.0865C51.8846 37.3748 49.6819 35.175 46.9638 35.175ZM46.9638 41.7812C46.0267 41.7812 45.2666 41.0225 45.2666 40.0872C45.2666 39.1518 46.0267 38.3945 46.9638 38.3945C47.9009 38.3945 48.661 39.1518 48.661 40.0872C48.661 41.0218 47.9009 41.7812 46.9638 41.7812Z" fill="#F5A4B0"/>
<path d="M59.3795 18.9738C58.9511 18.8011 58.5079 18.7189 58.0721 18.7189C56.6904 18.7189 55.381 19.5429 54.8303 20.9005L52.6352 26.3231H23.2376L17.3669 11.822C18.7804 11.4019 19.8519 10.1462 19.9067 8.61399C19.9783 6.63132 18.3878 5 16.4163 5H3.49311C1.56413 5 0 6.56118 0 8.48653C0 10.4119 1.56413 11.9731 3.49311 11.9731H9.89287L18.5243 33.2989L18.5277 33.2969V33.2989H57.3478L61.3098 23.5123C62.0328 21.7272 61.1686 19.6947 59.3795 18.9738Z" fill="#08668E"/>
</g>
<path d="M82.196 36.288C81.452 36.288 80.876 36.084 80.468 35.676C80.084 35.244 79.892 34.656 79.892 33.912V14.472H72.872C72.248 14.472 71.756 14.304 71.396 13.968C71.06 13.608 70.892 13.128 70.892 12.528C70.892 11.904 71.06 11.436 71.396 11.124C71.756 10.788 72.248 10.62 72.872 10.62H91.52C92.144 10.62 92.624 10.788 92.96 11.124C93.32 11.436 93.5 11.904 93.5 12.528C93.5 13.128 93.32 13.608 92.96 13.968C92.624 14.304 92.144 14.472 91.52 14.472H84.5V33.912C84.5 34.656 84.308 35.244 83.924 35.676C83.54 36.084 82.964 36.288 82.196 36.288ZM100.063 36.36C98.0709 36.36 96.3549 35.988 94.9149 35.244C93.4749 34.5 92.3589 33.444 91.5669 32.076C90.7989 30.708 90.4149 29.088 90.4149 27.216C90.4149 25.392 90.7869 23.796 91.5309 22.428C92.2989 21.06 93.3429 19.992 94.6629 19.224C96.0069 18.432 97.5309 18.036 99.2349 18.036C100.483 18.036 101.599 18.24 102.583 18.648C103.591 19.056 104.443 19.644 105.139 20.412C105.859 21.18 106.399 22.116 106.759 23.22C107.143 24.3 107.335 25.524 107.335 26.892C107.335 27.324 107.179 27.66 106.867 27.9C106.579 28.116 106.159 28.224 105.607 28.224H94.0509V25.632H104.167L103.591 26.172C103.591 25.068 103.423 24.144 103.087 23.4C102.775 22.656 102.307 22.092 101.683 21.708C101.083 21.3 100.327 21.096 99.4149 21.096C98.4069 21.096 97.5429 21.336 96.8229 21.816C96.1269 22.272 95.5869 22.932 95.2029 23.796C94.8429 24.636 94.6629 25.644 94.6629 26.82V27.072C94.6629 29.04 95.1189 30.516 96.0309 31.5C96.9669 32.46 98.3349 32.94 100.135 32.94C100.759 32.94 101.455 32.868 102.223 32.724C103.015 32.556 103.759 32.28 104.455 31.896C104.959 31.608 105.403 31.488 105.787 31.536C106.171 31.56 106.471 31.692 106.687 31.932C106.927 32.172 107.071 32.472 107.119 32.832C107.167 33.168 107.095 33.516 106.903 33.876C106.735 34.236 106.435 34.548 106.003 34.812C105.163 35.34 104.191 35.736 103.087 36C102.007 36.24 100.999 36.36 100.063 36.36ZM117.535 36.36C115.687 36.36 114.079 35.988 112.711 35.244C111.343 34.476 110.287 33.396 109.543 32.004C108.799 30.612 108.427 28.98 108.427 27.108C108.427 25.692 108.631 24.432 109.039 23.328C109.471 22.2 110.083 21.252 110.875 20.484C111.667 19.692 112.627 19.092 113.755 18.684C114.883 18.252 116.143 18.036 117.535 18.036C118.327 18.036 119.179 18.144 120.091 18.36C121.027 18.576 121.903 18.936 122.719 19.44C123.103 19.68 123.355 19.968 123.475 20.304C123.595 20.64 123.619 20.988 123.547 21.348C123.475 21.684 123.319 21.984 123.079 22.248C122.863 22.488 122.587 22.644 122.251 22.716C121.915 22.764 121.543 22.68 121.135 22.464C120.607 22.152 120.067 21.924 119.515 21.78C118.963 21.612 118.435 21.528 117.931 21.528C117.139 21.528 116.443 21.66 115.843 21.924C115.243 22.164 114.727 22.524 114.295 23.004C113.887 23.46 113.575 24.036 113.359 24.732C113.143 25.428 113.035 26.232 113.035 27.144C113.035 28.92 113.455 30.324 114.295 31.356C115.159 32.364 116.371 32.868 117.931 32.868C118.435 32.868 118.951 32.796 119.479 32.652C120.031 32.508 120.583 32.28 121.135 31.968C121.543 31.752 121.903 31.68 122.215 31.752C122.551 31.824 122.827 31.992 123.043 32.256C123.259 32.496 123.391 32.796 123.439 33.156C123.487 33.492 123.439 33.828 123.295 34.164C123.175 34.5 122.935 34.776 122.575 34.992C121.783 35.472 120.943 35.82 120.055 36.036C119.167 36.252 118.327 36.36 117.535 36.36ZM127.111 36.288C126.391 36.288 125.839 36.096 125.455 35.712C125.071 35.304 124.879 34.728 124.879 33.984V12.6C124.879 11.856 125.071 11.292 125.455 10.908C125.839 10.524 126.391 10.332 127.111 10.332C127.831 10.332 128.383 10.524 128.767 10.908C129.175 11.292 129.379 11.856 129.379 12.6V21.924H128.875C129.403 20.652 130.219 19.692 131.323 19.044C132.451 18.372 133.723 18.036 135.139 18.036C136.555 18.036 137.719 18.3 138.631 18.828C139.543 19.356 140.227 20.16 140.683 21.24C141.139 22.296 141.367 23.64 141.367 25.272V33.984C141.367 34.728 141.175 35.304 140.791 35.712C140.407 36.096 139.855 36.288 139.135 36.288C138.415 36.288 137.851 36.096 137.443 35.712C137.059 35.304 136.867 34.728 136.867 33.984V25.488C136.867 24.12 136.603 23.124 136.075 22.5C135.571 21.876 134.779 21.564 133.699 21.564C132.379 21.564 131.323 21.984 130.531 22.824C129.763 23.64 129.379 24.732 129.379 26.1V33.984C129.379 35.52 128.623 36.288 127.111 36.288ZM146.094 28.152C145.566 28.152 145.122 27.984 144.762 27.648C144.426 27.288 144.258 26.856 144.258 26.352C144.258 25.824 144.426 25.392 144.762 25.056C145.122 24.72 145.566 24.552 146.094 24.552H153.762C154.266 24.552 154.686 24.72 155.022 25.056C155.382 25.392 155.562 25.824 155.562 26.352C155.562 26.856 155.382 27.288 155.022 27.648C154.686 27.984 154.266 28.152 153.762 28.152H146.094Z" fill="#05668D"/>
<path d="M161.427 36C160.635 36 160.023 35.796 159.591 35.388C159.183 34.956 158.979 34.344 158.979 33.552V13.068C158.979 12.276 159.183 11.676 159.591 11.268C160.023 10.836 160.635 10.62 161.427 10.62H174.279C174.879 10.62 175.335 10.776 175.647 11.088C175.983 11.4 176.151 11.844 176.151 12.42C176.151 13.02 175.983 13.488 175.647 13.824C175.335 14.136 174.879 14.292 174.279 14.292H163.407V21.276H173.487C174.111 21.276 174.579 21.432 174.891 21.744C175.203 22.056 175.359 22.512 175.359 23.112C175.359 23.712 175.203 24.168 174.891 24.48C174.579 24.792 174.111 24.948 173.487 24.948H163.407V32.328H174.279C174.879 32.328 175.335 32.484 175.647 32.796C175.983 33.108 176.151 33.564 176.151 34.164C176.151 34.764 175.983 35.22 175.647 35.532C175.335 35.844 174.879 36 174.279 36H161.427Z" fill="#F294A1"/>
<defs>
<clipPath id="clip0_105_290">
<rect width="61.5652" height="40" fill="white" transform="translate(0 5)"/>
</clipPath>
</defs>
</svg>
